<svg width="20" height="16" viewBox="0 0 20 16" fill="none" xmlns="http://www.w3.org/2000/svg">
<path d="M19.3749 8.00004C19.3749 8.29841 19.2564 8.58455 19.0454 8.79553C18.8344 9.00651 18.5483 9.12504 18.2499 9.12504H4.46866L9.29866 13.9541C9.51 14.1654 9.62874 14.4521 9.62874 14.751C9.62874 15.0499 9.51 15.3365 9.29866 15.5478C9.08732 15.7592 8.80067 15.8779 8.50179 15.8779C8.2029 15.8779 7.91625 15.7592 7.70491 15.5478L0.954911 8.79785C0.850031 8.69333 0.766814 8.56914 0.710033 8.4324C0.653252 8.29565 0.624023 8.14904 0.624023 8.00097C0.624023 7.85291 0.653252 7.7063 0.710033 7.56955C0.766814 7.43281 0.850031 7.30862 0.954911 7.2041L7.70491 0.4541C7.80956 0.349453 7.93379 0.266442 8.07052 0.209807C8.20725 0.153173 8.35379 0.124023 8.50179 0.124023C8.64978 0.124023 8.79632 0.153173 8.93305 0.209807C9.06978 0.266442 9.19401 0.349453 9.29866 0.4541C9.40331 0.558747 9.48632 0.682981 9.54295 0.819709C9.59959 0.956437 9.62874 1.10298 9.62874 1.25097C9.62874 1.39897 9.59959 1.54551 9.54295 1.68224C9.48632 1.81897 9.40331 1.9432 9.29866 2.04785L4.46866 6.87504H18.2499C18.5483 6.87504 18.8344 6.99356 19.0454 7.20454C19.2564 7.41552 19.3749 7.70167 19.3749 8.00004Z" fill="#343330"/>
</svg>
