<svg width="14" height="15" viewBox="0 0 14 15" fill="none" xmlns="http://www.w3.org/2000/svg">
<path d="M11.375 2.03125H10.2812V1.8125C10.2812 1.63845 10.2121 1.47153 10.089 1.34846C9.96597 1.22539 9.79905 1.15625 9.625 1.15625C9.45095 1.15625 9.28403 1.22539 9.16096 1.34846C9.03789 1.47153 8.96875 1.63845 8.96875 1.8125V2.03125H5.03125V1.8125C5.03125 1.63845 4.96211 1.47153 4.83904 1.34846C4.71597 1.22539 4.54905 1.15625 4.375 1.15625C4.20095 1.15625 4.03403 1.22539 3.91096 1.34846C3.78789 1.47153 3.71875 1.63845 3.71875 1.8125V2.03125H2.625C2.33492 2.03125 2.05672 2.14648 1.8516 2.3516C1.64648 2.55672 1.53125 2.83492 1.53125 3.125V11.875C1.53125 12.1651 1.64648 12.4433 1.8516 12.6484C2.05672 12.8535 2.33492 12.9688 2.625 12.9688H11.375C11.6651 12.9688 11.9433 12.8535 12.1484 12.6484C12.3535 12.4433 12.4688 12.1651 12.4688 11.875V3.125C12.4688 2.83492 12.3535 2.55672 12.1484 2.3516C11.9433 2.14648 11.6651 2.03125 11.375 2.03125ZM3.71875 3.34375C3.71875 3.5178 3.78789 3.68472 3.91096 3.80779C4.03403 3.93086 4.20095 4 4.375 4C4.54905 4 4.71597 3.93086 4.83904 3.80779C4.96211 3.68472 5.03125 3.5178 5.03125 3.34375H8.96875C8.96875 3.5178 9.03789 3.68472 9.16096 3.80779C9.28403 3.93086 9.45095 4 9.625 4C9.79905 4 9.96597 3.93086 10.089 3.80779C10.2121 3.68472 10.2812 3.5178 10.2812 3.34375H11.1562V4.65625H2.84375V3.34375H3.71875ZM2.84375 11.6562V5.96875H11.1562V11.6562H2.84375Z" fill="#949494"/>
</svg>
