<svg width="10" height="11" viewBox="0 0 10 11" fill="none" xmlns="http://www.w3.org/2000/svg">
<path d="M9.08162 3.64414L4.08162 8.64414C4.03807 8.68784 3.98633 8.72251 3.92935 8.74617C3.87237 8.76983 3.81129 8.78201 3.74959 8.78201C3.6879 8.78201 3.62681 8.76983 3.56983 8.74617C3.51286 8.72251 3.46111 8.68784 3.41756 8.64414L1.23006 6.45664C1.18646 6.41303 1.15187 6.36127 1.12827 6.3043C1.10467 6.24733 1.09253 6.18627 1.09253 6.12461C1.09253 6.06294 1.10467 6.00188 1.12827 5.94491C1.15187 5.88794 1.18646 5.83618 1.23006 5.79257C1.27366 5.74897 1.32543 5.71438 1.3824 5.69079C1.43937 5.66719 1.50043 5.65504 1.56209 5.65504C1.62376 5.65504 1.68482 5.66719 1.74179 5.69079C1.79876 5.71438 1.85052 5.74897 1.89412 5.79257L3.74998 7.64843L8.41834 2.98085C8.5064 2.89279 8.62584 2.84332 8.75037 2.84332C8.87491 2.84332 8.99434 2.89279 9.0824 2.98085C9.17046 3.06891 9.21994 3.18835 9.21994 3.31289C9.21994 3.43742 9.17046 3.55686 9.0824 3.64492L9.08162 3.64414Z" fill="black" stroke="black" stroke-width="1.5"/>
</svg>
