<svg width="11" height="10" viewBox="0 0 11 10" fill="none" xmlns="http://www.w3.org/2000/svg">
<path d="M9.8125 5C9.8125 5.80349 9.57424 6.58893 9.12785 7.257C8.68145 7.92508 8.04698 8.44578 7.30465 8.75326C6.56233 9.06074 5.7455 9.14119 4.95745 8.98444C4.1694 8.82769 3.44553 8.44077 2.87738 7.87262C2.30923 7.30447 1.92231 6.5806 1.76556 5.79255C1.60881 5.00451 1.68926 4.18767 1.99674 3.44535C2.30422 2.70302 2.82492 2.06855 3.493 1.62215C4.16107 1.17576 4.94652 0.9375 5.75 0.9375C6.82703 0.938844 7.85956 1.36729 8.62114 2.12886C9.38271 2.89044 9.81116 3.92297 9.8125 5Z" fill="#186A3B"/>
</svg>
