<svg width="16" height="16" viewBox="0 0 16 16" fill="none" xmlns="http://www.w3.org/2000/svg">
<path d="M1.31249 15.5V13H3.89582L1.77082 6.04167C1.39582 5.83334 1.08665 5.52778 0.843321 5.125C0.599988 4.72223 0.478877 4.29167 0.479988 3.83334C0.479988 3.13889 0.723044 2.54861 1.20915 2.0625C1.69527 1.57639 2.28527 1.33334 2.97915 1.33334C3.52082 1.33334 4.0036 1.48973 4.42749 1.8025C4.85138 2.11528 5.1461 2.51445 5.31166 3H7.97832V2.16667C7.97832 1.93056 8.05832 1.7325 8.21832 1.5725C8.37832 1.4125 8.57638 1.33278 8.81249 1.33334C8.93749 1.33334 9.05915 1.36111 9.17749 1.41667C9.29582 1.47223 9.39638 1.55556 9.47915 1.66667L10.8958 0.333336C11.0208 0.208336 11.1703 0.128337 11.3442 0.0933365C11.518 0.0583365 11.688 0.0827808 11.8542 0.16667L15.1042 1.66667C15.2708 1.75 15.3855 1.87167 15.4483 2.03167C15.5111 2.19167 15.5075 2.34778 15.4375 2.5C15.3542 2.66667 15.2325 2.77445 15.0725 2.82334C14.9125 2.87223 14.7564 2.86167 14.6042 2.79167L11.6042 1.41667L9.64582 3.25V4.41667L11.6042 6.20834L14.6042 4.83334C14.7569 4.76389 14.9167 4.75695 15.0833 4.8125C15.25 4.86806 15.368 4.97223 15.4375 5.125C15.5208 5.29167 15.5278 5.45139 15.4583 5.60417C15.3889 5.75695 15.2708 5.875 15.1042 5.95834L11.8542 7.5C11.6875 7.58334 11.5172 7.6075 11.3433 7.5725C11.1694 7.5375 11.0203 7.45778 10.8958 7.33334L9.47915 6C9.39582 6.08334 9.29527 6.15973 9.17749 6.22917C9.05971 6.29861 8.93804 6.33334 8.81249 6.33334C8.57638 6.33334 8.3786 6.25361 8.21915 6.09417C8.05971 5.93473 7.97971 5.73667 7.97916 5.5V4.66667H5.31249C5.27082 4.77778 5.22554 4.88195 5.17666 4.97917C5.12777 5.07639 5.06193 5.18056 4.97916 5.29167L9.14582 13H12.1458V15.5H1.31249ZM2.97915 4.66667C3.21527 4.66667 3.41332 4.58667 3.57332 4.42667C3.73332 4.26667 3.81277 4.06889 3.81165 3.83334C3.81165 3.59723 3.73193 3.39917 3.57249 3.23917C3.41304 3.07917 3.21527 2.99945 2.97915 3C2.74304 3 2.54527 3.08 2.38582 3.24C2.22638 3.4 2.1461 3.59778 2.14499 3.83334C2.14499 4.06945 2.22499 4.2675 2.38499 4.4275C2.54499 4.5875 2.7436 4.66723 2.97915 4.66667Z" fill="#666666"/>
</svg>
