<svg width="20" height="21" viewBox="0 0 20 21" fill="none" xmlns="http://www.w3.org/2000/svg">
<path d="M8.75 5.1875C8.75 4.94027 8.82331 4.6986 8.96066 4.49304C9.09802 4.28748 9.29324 4.12726 9.52165 4.03265C9.75005 3.93804 10.0014 3.91329 10.2439 3.96152C10.4863 4.00975 10.7091 4.1288 10.8839 4.30362C11.0587 4.47843 11.1778 4.70116 11.226 4.94364C11.2742 5.18611 11.2495 5.43745 11.1549 5.66586C11.0602 5.89426 10.9 6.08949 10.6945 6.22684C10.4889 6.36419 10.2472 6.4375 10 6.4375C9.66848 6.4375 9.35054 6.3058 9.11612 6.07138C8.8817 5.83696 8.75 5.51902 8.75 5.1875ZM10 9.25C9.75277 9.25 9.5111 9.32331 9.30554 9.46066C9.09998 9.59802 8.93976 9.79324 8.84515 10.0216C8.75054 10.2501 8.72579 10.5014 8.77402 10.7439C8.82225 10.9863 8.9413 11.2091 9.11612 11.3839C9.29093 11.5587 9.51366 11.6778 9.75614 11.726C9.99861 11.7742 10.2499 11.7495 10.4784 11.6549C10.7068 11.5602 10.902 11.4 11.0393 11.1945C11.1767 10.9889 11.25 10.7472 11.25 10.5C11.25 10.1685 11.1183 9.85054 10.8839 9.61612C10.6495 9.3817 10.3315 9.25 10 9.25ZM10 14.5625C9.75277 14.5625 9.5111 14.6358 9.30554 14.7732C9.09998 14.9105 8.93976 15.1057 8.84515 15.3341C8.75054 15.5626 8.72579 15.8139 8.77402 16.0564C8.82225 16.2988 8.9413 16.5216 9.11612 16.6964C9.29093 16.8712 9.51366 16.9903 9.75614 17.0385C9.99861 17.0867 10.2499 17.062 10.4784 16.9674C10.7068 16.8727 10.902 16.7125 11.0393 16.507C11.1767 16.3014 11.25 16.0597 11.25 15.8125C11.25 15.481 11.1183 15.163 10.8839 14.9286C10.6495 14.6942 10.3315 14.5625 10 14.5625Z" fill="#949494"/>
</svg>
