<svg width="15" height="14" viewBox="0 0 15 14" fill="none" xmlns="http://www.w3.org/2000/svg">
<path d="M12.9688 5.6875C12.9688 5.86155 12.8996 6.02847 12.7765 6.15154C12.6535 6.27461 12.4865 6.34375 12.3125 6.34375C12.1385 6.34375 11.9715 6.27461 11.8485 6.15154C11.7254 6.02847 11.6562 5.86155 11.6562 5.6875V3.77344L8.4018 7.02789C8.27851 7.15117 8.1113 7.22043 7.93695 7.22043C7.7626 7.22043 7.59539 7.15117 7.47211 7.02789C7.34882 6.90461 7.27956 6.7374 7.27956 6.56305C7.27956 6.3887 7.34882 6.22149 7.47211 6.0982L10.7266 2.84375H8.8125C8.63845 2.84375 8.47153 2.77461 8.34846 2.65154C8.22539 2.52847 8.15625 2.36155 8.15625 2.1875C8.15625 2.01345 8.22539 1.84653 8.34846 1.72346C8.47153 1.60039 8.63845 1.53125 8.8125 1.53125H12.3125C12.4865 1.53125 12.6535 1.60039 12.7765 1.72346C12.8996 1.84653 12.9688 2.01345 12.9688 2.1875V5.6875ZM10.5625 7C10.3885 7 10.2215 7.06914 10.0985 7.19221C9.97539 7.31528 9.90625 7.4822 9.90625 7.65625V11.1562H3.34375V4.59375H6.84375C7.0178 4.59375 7.18472 4.52461 7.30779 4.40154C7.43086 4.27847 7.5 4.11155 7.5 3.9375C7.5 3.76345 7.43086 3.59653 7.30779 3.47346C7.18472 3.35039 7.0178 3.28125 6.84375 3.28125H3.125C2.83492 3.28125 2.55672 3.39648 2.3516 3.6016C2.14648 3.80672 2.03125 4.08492 2.03125 4.375V11.375C2.03125 11.6651 2.14648 11.9433 2.3516 12.1484C2.55672 12.3535 2.83492 12.4688 3.125 12.4688H10.125C10.4151 12.4688 10.6933 12.3535 10.8984 12.1484C11.1035 11.9433 11.2188 11.6651 11.2188 11.375V7.65625C11.2188 7.4822 11.1496 7.31528 11.0265 7.19221C10.9035 7.06914 10.7365 7 10.5625 7Z" fill="#283093"/>
</svg>
