<svg width="20" height="20" viewBox="0 0 20 20" fill="none" xmlns="http://www.w3.org/2000/svg">
<g clip-path="url(#clip0_4442_3321)">
<path d="M7.5 12.5001V11.6667H8.33333V12.5001H7.5Z" fill="#666666"/>
<path fill-rule="evenodd" clip-rule="evenodd" d="M15 1.66675C15.4421 1.66675 15.866 1.84234 16.1786 2.1549C16.4911 2.46746 16.6667 2.89139 16.6667 3.33341V16.6667C16.6667 17.1088 16.4911 17.5327 16.1786 17.8453C15.866 18.1578 15.4421 18.3334 15 18.3334H5.00004C4.55801 18.3334 4.13409 18.1578 3.82153 17.8453C3.50897 17.5327 3.33337 17.1088 3.33337 16.6667V3.33341C3.33337 2.89139 3.50897 2.46746 3.82153 2.1549C4.13409 1.84234 4.55801 1.66675 5.00004 1.66675H15ZM8.75004 10.0001H7.08337C6.75185 10.0001 6.43391 10.1318 6.19949 10.3662C5.96507 10.6006 5.83337 10.9186 5.83337 11.2501V12.9167C5.83337 13.2483 5.96507 13.5662 6.19949 13.8006C6.43391 14.0351 6.75185 14.1667 7.08337 14.1667H8.75004C9.08156 14.1667 9.3995 14.0351 9.63392 13.8006C9.86834 13.5662 10 13.2483 10 12.9167V11.2501C10 10.9186 9.86834 10.6006 9.63392 10.3662C9.3995 10.1318 9.08156 10.0001 8.75004 10.0001ZM13.3334 11.2501H11.6667C11.4543 11.2503 11.25 11.3316 11.0956 11.4775C10.9411 11.6233 10.8482 11.8225 10.8357 12.0346C10.8233 12.2466 10.8923 12.4554 11.0286 12.6183C11.1649 12.7812 11.3583 12.8858 11.5692 12.9109L11.6667 12.9167H13.3334C13.5458 12.9165 13.7501 12.8352 13.9045 12.6894C14.059 12.5436 14.1519 12.3443 14.1643 12.1323C14.1768 11.9202 14.1078 11.7114 13.9715 11.5486C13.8352 11.3857 13.6418 11.281 13.4309 11.2559L13.3334 11.2501ZM8.44504 5.63591L7.26671 6.81425L6.97171 6.51925C6.89483 6.43966 6.80288 6.37617 6.70121 6.3325C6.59954 6.28882 6.49019 6.26583 6.37954 6.26487C6.26889 6.26391 6.15916 6.285 6.05675 6.3269C5.95433 6.3688 5.86129 6.43068 5.78305 6.50892C5.7048 6.58716 5.64292 6.68021 5.60102 6.78262C5.55912 6.88503 5.53804 6.99477 5.539 7.10542C5.53996 7.21607 5.56295 7.32541 5.60662 7.42708C5.6503 7.52875 5.71378 7.62071 5.79337 7.69758L6.53004 8.43425C6.62677 8.531 6.74162 8.60776 6.86802 8.66012C6.99441 8.71249 7.12989 8.73944 7.26671 8.73944C7.40352 8.73944 7.539 8.71249 7.6654 8.66012C7.7918 8.60776 7.90664 8.531 8.00337 8.43425L9.62337 6.81425C9.77517 6.65708 9.85917 6.44658 9.85727 6.22808C9.85537 6.00958 9.76773 5.80057 9.61322 5.64607C9.45872 5.49156 9.24971 5.40392 9.03121 5.40202C8.81271 5.40012 8.60221 5.48412 8.44504 5.63591ZM13.3334 6.66675H11.6667C11.4543 6.66698 11.25 6.74831 11.0956 6.89412C10.9411 7.03993 10.8482 7.23921 10.8357 7.45124C10.8233 7.66328 10.8923 7.87206 11.0286 8.03494C11.1649 8.19782 11.3583 8.3025 11.5692 8.32758L11.6667 8.33341H13.3334C13.5458 8.33318 13.7501 8.25185 13.9045 8.10604C14.059 7.96023 14.1519 7.76095 14.1643 7.54892C14.1768 7.33688 14.1078 7.1281 13.9715 6.96522C13.8352 6.80234 13.6418 6.69767 13.4309 6.67258L13.3334 6.66675Z" fill="#666666"/>
</g>
<defs>
<clipPath id="clip0_4442_3321">
<rect width="20" height="20" fill="white"/>
</clipPath>
</defs>
</svg>
