<svg width="20" height="20" viewBox="0 0 20 20" fill="none" xmlns="http://www.w3.org/2000/svg">
<g clip-path="url(#clip0_4442_3326)">
<path d="M7.5 12.5001V11.6667H8.33333V12.5001H7.5Z" fill="#283093"/>
<path fill-rule="evenodd" clip-rule="evenodd" d="M14.9999 1.66675C15.4419 1.66675 15.8659 1.84234 16.1784 2.1549C16.491 2.46746 16.6666 2.89139 16.6666 3.33341V16.6667C16.6666 17.1088 16.491 17.5327 16.1784 17.8453C15.8659 18.1578 15.4419 18.3334 14.9999 18.3334H4.99992C4.55789 18.3334 4.13397 18.1578 3.82141 17.8453C3.50885 17.5327 3.33325 17.1088 3.33325 16.6667V3.33341C3.33325 2.89139 3.50885 2.46746 3.82141 2.1549C4.13397 1.84234 4.55789 1.66675 4.99992 1.66675H14.9999ZM8.74992 10.0001H7.08325C6.75173 10.0001 6.43379 10.1318 6.19937 10.3662C5.96495 10.6006 5.83325 10.9186 5.83325 11.2501V12.9167C5.83325 13.2483 5.96495 13.5662 6.19937 13.8006C6.43379 14.0351 6.75173 14.1667 7.08325 14.1667H8.74992C9.08144 14.1667 9.39938 14.0351 9.6338 13.8006C9.86822 13.5662 9.99992 13.2483 9.99992 12.9167V11.2501C9.99992 10.9186 9.86822 10.6006 9.6338 10.3662C9.39938 10.1318 9.08144 10.0001 8.74992 10.0001ZM13.3333 11.2501H11.6666C11.4542 11.2503 11.2499 11.3316 11.0954 11.4775C10.941 11.6233 10.8481 11.8225 10.8356 12.0346C10.8232 12.2466 10.8921 12.4554 11.0285 12.6183C11.1648 12.7812 11.3582 12.8858 11.5691 12.9109L11.6666 12.9167H13.3333C13.5457 12.9165 13.7499 12.8352 13.9044 12.6894C14.0588 12.5436 14.1518 12.3443 14.1642 12.1323C14.1767 11.9202 14.1077 11.7114 13.9714 11.5486C13.835 11.3857 13.6417 11.281 13.4308 11.2559L13.3333 11.2501ZM8.44492 5.63591L7.26659 6.81425L6.97159 6.51925C6.89471 6.43966 6.80276 6.37617 6.70109 6.3325C6.59942 6.28882 6.49007 6.26583 6.37942 6.26487C6.26877 6.26391 6.15904 6.285 6.05662 6.3269C5.95421 6.3688 5.86117 6.43068 5.78292 6.50892C5.70468 6.58716 5.6428 6.68021 5.6009 6.78262C5.559 6.88503 5.53791 6.99477 5.53888 7.10542C5.53984 7.21607 5.56283 7.32541 5.6065 7.42708C5.65017 7.52875 5.71366 7.62071 5.79325 7.69758L6.52992 8.43425C6.62665 8.531 6.74149 8.60776 6.86789 8.66012C6.99429 8.71249 7.12977 8.73944 7.26659 8.73944C7.4034 8.73944 7.53888 8.71249 7.66528 8.66012C7.79168 8.60776 7.90652 8.531 8.00325 8.43425L9.62325 6.81425C9.77505 6.65708 9.85905 6.44658 9.85715 6.22808C9.85525 6.00958 9.76761 5.80057 9.6131 5.64607C9.45859 5.49156 9.24958 5.40392 9.03109 5.40202C8.81259 5.40012 8.60209 5.48412 8.44492 5.63591ZM13.3333 6.66675H11.6666C11.4542 6.66698 11.2499 6.74831 11.0954 6.89412C10.941 7.03993 10.8481 7.23921 10.8356 7.45124C10.8232 7.66328 10.8921 7.87206 11.0285 8.03494C11.1648 8.19782 11.3582 8.3025 11.5691 8.32758L11.6666 8.33341H13.3333C13.5457 8.33318 13.7499 8.25185 13.9044 8.10604C14.0588 7.96023 14.1518 7.76095 14.1642 7.54892C14.1767 7.33688 14.1077 7.1281 13.9714 6.96522C13.835 6.80234 13.6417 6.69767 13.4308 6.67258L13.3333 6.66675Z" fill="#283093"/>
</g>
<defs>
<clipPath id="clip0_4442_3326">
<rect width="20" height="20" fill="white"/>
</clipPath>
</defs>
</svg>
