<svg width="12" height="12" viewBox="0 0 12 12" fill="none" xmlns="http://www.w3.org/2000/svg">
<path d="M10.7878 3.30658L8.69344 1.21173C8.60638 1.12464 8.50302 1.05555 8.38925 1.00841C8.27548 0.961273 8.15354 0.937012 8.03039 0.937012C7.90725 0.937012 7.78531 0.961273 7.67154 1.00841C7.55777 1.05555 7.45441 1.12464 7.36735 1.21173L1.58719 6.99236C1.49982 7.07916 1.43055 7.18245 1.38339 7.29622C1.33624 7.41 1.31214 7.53201 1.3125 7.65517V9.75001C1.3125 9.99866 1.41128 10.2371 1.58709 10.4129C1.76291 10.5887 2.00136 10.6875 2.25 10.6875H4.34485C4.46801 10.6878 4.59 10.6637 4.70378 10.6166C4.81755 10.5694 4.92084 10.5002 5.00766 10.4128L10.7878 4.6322C10.9636 4.45639 11.0623 4.21798 11.0623 3.96939C11.0623 3.7208 10.9636 3.48238 10.7878 3.30658ZM4.26563 9.56251H2.4375V7.73439L6.375 3.79689L8.20313 5.62501L4.26563 9.56251ZM9 4.82814L7.17188 3.00001L8.03157 2.14033L9.85969 3.96845L9 4.82814Z" fill="#2E2E2E"/>
</svg>
