<svg width="16" height="16" viewBox="0 0 16 16" fill="none" xmlns="http://www.w3.org/2000/svg">
<path d="M14.25 8.00009C14.25 8.199 14.171 8.38977 14.0303 8.53042C13.8897 8.67107 13.6989 8.75009 13.5 8.75009H8.75V13.5001C8.75 13.699 8.67098 13.8898 8.53033 14.0304C8.38968 14.1711 8.19891 14.2501 8 14.2501C7.80109 14.2501 7.61032 14.1711 7.46967 14.0304C7.32902 13.8898 7.25 13.699 7.25 13.5001V8.75009H2.5C2.30109 8.75009 2.11032 8.67107 1.96967 8.53042C1.82902 8.38977 1.75 8.199 1.75 8.00009C1.75 7.80118 1.82902 7.61041 1.96967 7.46976C2.11032 7.32911 2.30109 7.25009 2.5 7.25009H7.25V2.50009C7.25 2.30118 7.32902 2.11041 7.46967 1.96976C7.61032 1.82911 7.80109 1.75009 8 1.75009C8.19891 1.75009 8.38968 1.82911 8.53033 1.96976C8.67098 2.11041 8.75 2.30118 8.75 2.50009V7.25009H13.5C13.6989 7.25009 13.8897 7.32911 14.0303 7.46976C14.171 7.61041 14.25 7.80118 14.25 8.00009Z" fill="#414EF1"/>
</svg>
