<svg width="20" height="20" viewBox="0 0 20 20" fill="none" xmlns="http://www.w3.org/2000/svg">
<path d="M9.61287 0.5C10.3657 0.508676 11.1155 0.595654 11.8503 0.759527C12.1711 0.831063 12.411 1.09847 12.4474 1.42509L12.622 2.99109C12.701 3.71012 13.3081 4.25472 14.0318 4.25548C14.2263 4.25578 14.4188 4.21527 14.5985 4.13574L16.0351 3.50468C16.3339 3.37344 16.6829 3.44499 16.906 3.6832C17.9441 4.79195 18.7173 6.12171 19.1673 7.57241C19.2643 7.88523 19.1526 8.22518 18.889 8.41951L17.6157 9.35807C17.2524 9.62494 17.0379 10.0487 17.0379 10.4995C17.0379 10.9502 17.2524 11.374 17.6165 11.6415L18.8909 12.5803C19.1546 12.7746 19.2664 13.1146 19.1693 13.4275C18.7195 14.878 17.9468 16.2076 16.9093 17.3165C16.6864 17.5547 16.3376 17.6265 16.0388 17.4956L14.5964 16.8636C14.1838 16.6831 13.7099 16.7095 13.3199 16.9349C12.9299 17.1603 12.6704 17.5577 12.6209 18.0054L12.4474 19.5712C12.4117 19.8941 12.177 20.1597 11.8609 20.2349C10.3753 20.5884 8.82754 20.5884 7.34195 20.2349C7.02592 20.1597 6.79119 19.8941 6.75544 19.5712L6.58229 18.0077C6.53143 17.5608 6.2715 17.1646 5.88184 16.94C5.49218 16.7154 5.01904 16.6891 4.60776 16.8686L3.16506 17.5007C2.86624 17.6316 2.51733 17.5598 2.2945 17.3215C1.25639 16.2113 0.483638 14.8801 0.0344127 13.428C-0.0623451 13.1153 0.0494495 12.7755 0.313024 12.5814L1.58824 11.6419C1.95146 11.375 2.16598 10.9512 2.16598 10.5005C2.16598 10.0498 1.95146 9.62596 1.58776 9.35874L0.313348 8.42089C0.0493821 8.22663 -0.0625153 7.88646 0.0345837 7.57344C0.484586 6.12273 1.25774 4.79298 2.29588 3.68423C2.51892 3.44602 2.868 3.37446 3.16677 3.50571L4.60306 4.13665C5.01633 4.31802 5.49145 4.29062 5.88322 4.06174C6.27329 3.83548 6.53298 3.43767 6.58311 2.9899L6.75755 1.42509C6.79398 1.09831 7.03408 0.830812 7.35505 0.759429C8.09072 0.595815 8.84136 0.508876 9.61287 0.5ZM11.2177 6.39743H7.86118L11.0462 10.5L8.20212 14.1043C8.09686 14.2377 8.11967 14.4312 8.25307 14.5364C8.30737 14.5793 8.37451 14.6026 8.44367 14.6026H11.2177C11.3127 14.6026 11.4024 14.5587 11.4607 14.4836L14.3098 10.8145C14.4535 10.6295 14.4535 10.3705 14.3098 10.1855L11.4607 6.5164C11.4024 6.44134 11.3127 6.39743 11.2177 6.39743ZM7.21933 7.22102L4.89775 10.1837C4.77298 10.3429 4.75513 10.5575 4.84421 10.7325L4.89767 10.8163L6.95066 13.4371L7.00134 13.4881C7.11533 13.5788 7.27382 13.5756 7.3834 13.489L7.43368 13.4389L8.80423 11.716C8.87522 11.6267 8.88974 11.5078 8.84763 11.4064L8.80543 11.3344L8.15025 10.5L8.95164 9.47846L7.21933 7.22102Z" fill="#283093"/>
</svg>
