<svg width="10" height="10" viewBox="0 0 10 10" fill="none" xmlns="http://www.w3.org/2000/svg">
<path d="M9.21875 5.00004C9.21875 6.11893 8.77428 7.19198 7.98311 7.98315C7.19194 8.77432 6.11888 9.21879 5 9.21879C3.88112 9.21879 2.80806 8.77432 2.01689 7.98315C1.22572 7.19198 0.78125 6.11893 0.78125 5.00004C0.78125 3.33911 1.74727 1.8227 3.24219 1.13676C3.29836 1.10938 3.35944 1.0935 3.42184 1.09006C3.48424 1.08663 3.54669 1.09571 3.60553 1.11676C3.66437 1.13782 3.71841 1.17042 3.76446 1.21266C3.81051 1.25491 3.84765 1.30593 3.8737 1.36274C3.89975 1.41954 3.91417 1.48098 3.91612 1.54345C3.91808 1.60591 3.90752 1.66813 3.88508 1.72645C3.86264 1.78478 3.82876 1.83802 3.78543 1.88306C3.74211 1.9281 3.69022 1.96402 3.63281 1.98871C2.47031 2.52231 1.71875 3.70434 1.71875 5.00004C1.71875 5.87028 2.06445 6.70488 2.67981 7.32024C3.29516 7.93559 4.12976 8.28129 5 8.28129C5.87024 8.28129 6.70484 7.93559 7.32019 7.32024C7.93555 6.70488 8.28125 5.87028 8.28125 5.00004C8.28125 3.70434 7.52969 2.52231 6.36719 1.98871C6.30978 1.96402 6.25789 1.9281 6.21457 1.88306C6.17124 1.83802 6.13736 1.78478 6.11492 1.72645C6.09248 1.66813 6.08192 1.60591 6.08388 1.54345C6.08583 1.48098 6.10025 1.41954 6.1263 1.36274C6.15235 1.30593 6.18949 1.25491 6.23554 1.21266C6.28159 1.17042 6.33563 1.13782 6.39447 1.11676C6.45331 1.09571 6.51576 1.08663 6.57816 1.09006C6.64056 1.0935 6.70164 1.10938 6.75781 1.13676C8.25273 1.8227 9.21875 3.33911 9.21875 5.00004Z" fill="black"/>
</svg>
