<svg width="10" height="11" viewBox="0 0 10 11" fill="none" xmlns="http://www.w3.org/2000/svg">
<path d="M5.46875 1.75V3C5.46875 3.12432 5.41936 3.24355 5.33146 3.33146C5.24355 3.41936 5.12432 3.46875 5 3.46875C4.87568 3.46875 4.75645 3.41936 4.66854 3.33146C4.58064 3.24355 4.53125 3.12432 4.53125 3V1.75C4.53125 1.62568 4.58064 1.50645 4.66854 1.41854C4.75645 1.33064 4.87568 1.28125 5 1.28125C5.12432 1.28125 5.24355 1.33064 5.33146 1.41854C5.41936 1.50645 5.46875 1.62568 5.46875 1.75ZM8.75 5.03125H7.5C7.37568 5.03125 7.25645 5.08064 7.16854 5.16854C7.08064 5.25645 7.03125 5.37568 7.03125 5.5C7.03125 5.62432 7.08064 5.74355 7.16854 5.83146C7.25645 5.91936 7.37568 5.96875 7.5 5.96875H8.75C8.87432 5.96875 8.99355 5.91936 9.08146 5.83146C9.16936 5.74355 9.21875 5.62432 9.21875 5.5C9.21875 5.37568 9.16936 5.25645 9.08146 5.16854C8.99355 5.08064 8.87432 5.03125 8.75 5.03125ZM7.09922 6.93633C7.05562 6.89273 7.00385 6.85814 6.94688 6.83454C6.88991 6.81094 6.82885 6.7988 6.76719 6.7988C6.70552 6.7988 6.64446 6.81094 6.58749 6.83454C6.53052 6.85814 6.47876 6.89273 6.43516 6.93633C6.39155 6.97993 6.35697 7.0317 6.33337 7.08867C6.30977 7.14564 6.29762 7.2067 6.29762 7.26836C6.29762 7.33002 6.30977 7.39108 6.33337 7.44805C6.35697 7.50502 6.39155 7.55679 6.43516 7.60039L7.31914 8.48438C7.4072 8.57243 7.52664 8.62191 7.65117 8.62191C7.77571 8.62191 7.89514 8.57243 7.9832 8.48438C8.07126 8.39631 8.12073 8.27688 8.12073 8.15234C8.12073 8.02781 8.07126 7.90837 7.9832 7.82031L7.09922 6.93633ZM5 7.53125C4.87568 7.53125 4.75645 7.58064 4.66854 7.66854C4.58064 7.75645 4.53125 7.87568 4.53125 8V9.25C4.53125 9.37432 4.58064 9.49355 4.66854 9.58146C4.75645 9.66936 4.87568 9.71875 5 9.71875C5.12432 9.71875 5.24355 9.66936 5.33146 9.58146C5.41936 9.49355 5.46875 9.37432 5.46875 9.25V8C5.46875 7.87568 5.41936 7.75645 5.33146 7.66854C5.24355 7.58064 5.12432 7.53125 5 7.53125ZM2.90078 6.93633L2.0168 7.82031C1.92874 7.90837 1.87926 8.02781 1.87927 8.15234C1.87927 8.27688 1.92874 8.39631 2.0168 8.48438C2.10486 8.57243 2.22429 8.62191 2.34883 8.62191C2.47336 8.62191 2.5928 8.57243 2.68086 8.48438L3.56484 7.60039C3.6529 7.51233 3.70238 7.3929 3.70238 7.26836C3.70238 7.14382 3.6529 7.02439 3.56484 6.93633C3.47678 6.84827 3.35735 6.7988 3.23281 6.7988C3.10828 6.7988 2.98884 6.84827 2.90078 6.93633ZM2.96875 5.5C2.96875 5.37568 2.91936 5.25645 2.83146 5.16854C2.74355 5.08064 2.62432 5.03125 2.5 5.03125H1.25C1.12568 5.03125 1.00645 5.08064 0.918544 5.16854C0.830636 5.25645 0.78125 5.37568 0.78125 5.5C0.78125 5.62432 0.830636 5.74355 0.918544 5.83146C1.00645 5.91936 1.12568 5.96875 1.25 5.96875H2.5C2.62432 5.96875 2.74355 5.91936 2.83146 5.83146C2.91936 5.74355 2.96875 5.62432 2.96875 5.5ZM2.67969 2.5168C2.59163 2.42874 2.47219 2.37927 2.34766 2.37927C2.22312 2.37927 2.10369 2.42874 2.01562 2.5168C1.92756 2.60486 1.87809 2.72429 1.87809 2.84883C1.87809 2.97336 1.92756 3.0928 2.01562 3.18086L2.90078 4.06367C2.98884 4.15173 3.10828 4.2012 3.23281 4.2012C3.35735 4.2012 3.47678 4.15173 3.56484 4.06367C3.6529 3.97561 3.70238 3.85618 3.70238 3.73164C3.70238 3.6071 3.6529 3.48767 3.56484 3.39961L2.67969 2.5168Z" fill="black"/>
</svg>
