<svg width="16" height="17" viewBox="0 0 16 17" fill="none" xmlns="http://www.w3.org/2000/svg">
<path d="M14 9.99991V13.4999C14 13.7651 13.8946 14.0195 13.7071 14.207C13.5196 14.3945 13.2652 14.4999 13 14.4999H3C2.73478 14.4999 2.48043 14.3945 2.29289 14.207C2.10536 14.0195 2 13.7651 2 13.4999V9.99991C2 9.8673 2.05268 9.74012 2.14645 9.64635C2.24021 9.55258 2.36739 9.49991 2.5 9.49991C2.63261 9.49991 2.75979 9.55258 2.85355 9.64635C2.94732 9.74012 3 9.8673 3 9.99991V13.4999H13V9.99991C13 9.8673 13.0527 9.74012 13.1464 9.64635C13.2402 9.55258 13.3674 9.49991 13.5 9.49991C13.6326 9.49991 13.7598 9.55258 13.8536 9.64635C13.9473 9.74012 14 9.8673 14 9.99991ZM5.85375 5.85366L7.5 4.20678V9.99991C7.5 10.1325 7.55268 10.2597 7.64645 10.3535C7.74021 10.4472 7.86739 10.4999 8 10.4999C8.13261 10.4999 8.25979 10.4472 8.35355 10.3535C8.44732 10.2597 8.5 10.1325 8.5 9.99991V4.20678L10.1462 5.85366C10.2401 5.94748 10.3673 6.00018 10.5 6.00018C10.6327 6.00018 10.7599 5.94748 10.8538 5.85366C10.9476 5.75984 11.0003 5.63259 11.0003 5.49991C11.0003 5.36722 10.9476 5.23998 10.8538 5.14615L8.35375 2.64615C8.30731 2.59967 8.25217 2.56279 8.19147 2.53763C8.13077 2.51246 8.06571 2.49951 8 2.49951C7.93429 2.49951 7.86923 2.51246 7.80853 2.53763C7.74783 2.56279 7.69269 2.59967 7.64625 2.64615L5.14625 5.14615C5.05243 5.23998 4.99972 5.36722 4.99972 5.49991C4.99972 5.63259 5.05243 5.75984 5.14625 5.85366C5.24007 5.94748 5.36732 6.00018 5.5 6.00018C5.63268 6.00018 5.75993 5.94748 5.85375 5.85366Z" fill="#414EF1"/>
</svg>
