<svg width="28" height="29" viewBox="0 0 28 29" fill="none" xmlns="http://www.w3.org/2000/svg">
<path d="M22.4936 21.7559C22.5749 21.8372 22.6394 21.9337 22.6834 22.04C22.7274 22.1462 22.75 22.26 22.75 22.375C22.75 22.49 22.7274 22.6038 22.6834 22.71C22.6394 22.8163 22.5749 22.9128 22.4936 22.9941C22.4123 23.0754 22.3158 23.1398 22.2095 23.1838C22.1033 23.2278 21.9895 23.2505 21.8745 23.2505C21.7595 23.2505 21.6457 23.2278 21.5395 23.1838C21.4333 23.1398 21.3367 23.0754 21.2554 22.9941L13.9995 15.737L6.74357 22.9941C6.57939 23.1582 6.3567 23.2505 6.12451 23.2505C5.89232 23.2505 5.66963 23.1582 5.50545 22.9941C5.34126 22.8299 5.24902 22.6072 5.24902 22.375C5.24902 22.1428 5.34126 21.9201 5.50545 21.7559L12.7625 14.5L5.50545 7.24406C5.34126 7.07988 5.24902 6.85719 5.24902 6.625C5.24902 6.3928 5.34126 6.17012 5.50545 6.00594C5.66963 5.84175 5.89232 5.74951 6.12451 5.74951C6.3567 5.74951 6.57939 5.84175 6.74357 6.00594L13.9995 13.263L21.2554 6.00594C21.4196 5.84175 21.6423 5.74951 21.8745 5.74951C22.1067 5.74951 22.3294 5.84175 22.4936 6.00594C22.6578 6.17012 22.75 6.3928 22.75 6.625C22.75 6.85719 22.6578 7.07988 22.4936 7.24406L15.2365 14.5L22.4936 21.7559Z" fill="#343330"/>
</svg>
